%TF.GenerationSoftware,KiCad,Pcbnew,10.0.6*%
%TF.CreationDate,2026-09-29T18:04:51+03:00*%
%TF.ProjectId,hackpad,6861636b-7061-4642-9e6b-696361645f70,rev?*%
%TF.SameCoordinates,Original*%
%TF.FileFunction,Copper,L1,Top*%
%TF.FilePolarity,Positive*%
%FSLAX46Y46*%
G04 Gerber Fmt 4.6, Leading zero omitted, Abs format (unit mm)*
G04 Created by KiCad (PCBNEW 10.0.6) date 2026-09-29 18:04:51*
%MOMM*%
%LPD*%
G01*
G04 APERTURE LIST*
%TA.AperFunction,ComponentPad*%
%ADD10R,3.500000X1.700000*%
%TD*%
%TA.AperFunction,ComponentPad*%
%ADD11O,3.600000X1.700000*%
%TD*%
%TA.AperFunction,ComponentPad*%
%ADD12O,3.700000X1.700000*%
%TD*%
%TA.AperFunction,ComponentPad*%
%ADD13C,2.200000*%
%TD*%
%TA.AperFunction,ComponentPad*%
%ADD14R,1.730000X2.030000*%
%TD*%
%TA.AperFunction,ComponentPad*%
%ADD15O,1.730000X2.030000*%
%TD*%
%TA.AperFunction,Conductor*%
%ADD16C,0.200000*%
%TD*%
G04 APERTURE END LIST*
D10*
%TO.P,U1,1,PA02_A0_D0_1*%
%TO.N,Net-(U1-PA02_A0_D0)*%
X158500000Y-114880000D03*
D11*
%TO.P,U1,2,PA4_A1_D1_2*%
%TO.N,Net-(U1-PA4_A1_D1)*%
X158500000Y-117420000D03*
%TO.P,U1,3,PA10_A2_D2_3*%
%TO.N,Net-(U1-PA10_A2_D2)*%
X158500000Y-119960000D03*
%TO.P,U1,4,PA11_A3_D3_4*%
%TO.N,Net-(U1-PA11_A3_D3)*%
X158500000Y-122500000D03*
%TO.P,U1,5,PA8_A4_D4_SDA_5*%
%TO.N,Net-(J1-Pin_4)*%
X158500000Y-125040000D03*
%TO.P,U1,6,PA9_A5_D5_SCL_6*%
%TO.N,Net-(J1-Pin_3)*%
X158500000Y-127580000D03*
%TO.P,U1,7,PB08_A6_D6_TX_7*%
%TO.N,unconnected-(U1-PB08_A6_D6_TX-Pad7)*%
X158500000Y-130120000D03*
%TO.P,U1,8,PB09_A7_D7_RX_8*%
%TO.N,unconnected-(U1-PB09_A7_D7_RX-Pad8)*%
X175750000Y-130120000D03*
%TO.P,U1,9,PA7_A8_D8_SCK_9*%
%TO.N,unconnected-(U1-PA7_A8_D8_SCK-Pad9)*%
X175750000Y-127580000D03*
%TO.P,U1,10,PA5_A9_D9_MISO_10*%
%TO.N,unconnected-(U1-PA5_A9_D9_MISO-Pad10)*%
X175750000Y-125040000D03*
D12*
%TO.P,U1,11,PA6_A10_D10_MOSI_11*%
%TO.N,unconnected-(U1-PA6_A10_D10_MOSI-Pad11)*%
X175750000Y-122500000D03*
%TO.P,U1,12,3V3_12*%
%TO.N,Net-(J1-Pin_2)*%
X175750000Y-119960000D03*
%TO.P,U1,13,GND_13*%
%TO.N,GND*%
X175750000Y-117420000D03*
%TO.P,U1,14,5V_14*%
%TO.N,unconnected-(U1-5V-Pad14)*%
X175750000Y-114880000D03*
%TD*%
D13*
%TO.P,SW4,1,1_1*%
%TO.N,GND*%
X209040000Y-82420000D03*
%TO.P,SW4,2,2_2*%
%TO.N,Net-(U1-PA11_A3_D3)*%
X202690000Y-84960000D03*
%TD*%
%TO.P,SW3,1,1_1*%
%TO.N,GND*%
X186540000Y-82420000D03*
%TO.P,SW3,2,2_2*%
%TO.N,Net-(U1-PA10_A2_D2)*%
X180190000Y-84960000D03*
%TD*%
%TO.P,SW2,1,1_1*%
%TO.N,GND*%
X163540000Y-82420000D03*
%TO.P,SW2,2,2_2*%
%TO.N,Net-(U1-PA4_A1_D1)*%
X157190000Y-84960000D03*
%TD*%
%TO.P,SW1,1,1_1*%
%TO.N,GND*%
X142040000Y-82420000D03*
%TO.P,SW1,2,2_2*%
%TO.N,Net-(U1-PA02_A0_D0)*%
X135690000Y-84960000D03*
%TD*%
D14*
%TO.P,J1,1,Pin_1_1*%
%TO.N,unconnected-(J1-Pin_1-Pad1)*%
X163000000Y-104500000D03*
D15*
%TO.P,J1,2,Pin_2_2*%
%TO.N,Net-(J1-Pin_2)*%
X165540000Y-104500000D03*
%TO.P,J1,3,Pin_3_3*%
%TO.N,Net-(J1-Pin_3)*%
X168080000Y-104500000D03*
%TO.P,J1,4,Pin_4_4*%
%TO.N,Net-(J1-Pin_4)*%
X170620000Y-104500000D03*
%TD*%
%TO.N,GND*%
D16*
X175836346Y-117420000D02*
X174750000Y-117420000D01*
X204090000Y-84380101D02*
X204090000Y-89166346D01*
X204090000Y-89166346D02*
X175836346Y-117420000D01*
X202129899Y-82420000D02*
X204090000Y-84380101D01*
X186540000Y-82420000D02*
X202129899Y-82420000D01*
%TO.N,Net-(U1-PA02_A0_D0)*%
X135690000Y-91070000D02*
X135690000Y-84960000D01*
X159500000Y-114880000D02*
X135690000Y-91070000D01*
%TO.N,Net-(U1-PA11_A3_D3)*%
X197040000Y-84960000D02*
X202690000Y-84960000D01*
X159500000Y-122500000D02*
X197040000Y-84960000D01*
%TO.N,Net-(J1-Pin_3)*%
X169395000Y-105815000D02*
X168080000Y-104500000D01*
X171102559Y-105815000D02*
X169395000Y-105815000D01*
X171785000Y-94961598D02*
X171785000Y-105132559D01*
X159983402Y-83160000D02*
X171785000Y-94961598D01*
X156444416Y-83160000D02*
X159983402Y-83160000D01*
X137255686Y-83980101D02*
X155624314Y-83980101D01*
X155624314Y-83980101D02*
X156444416Y-83160000D01*
X134944416Y-83160000D02*
X136435585Y-83160000D01*
X132820000Y-101936346D02*
X132820000Y-85284415D01*
X136435585Y-83160000D02*
X137255686Y-83980101D01*
X158463654Y-127580000D02*
X132820000Y-101936346D01*
X171785000Y-105132559D02*
X171102559Y-105815000D01*
X159500000Y-127580000D02*
X158463654Y-127580000D01*
X132820000Y-85284415D02*
X134944416Y-83160000D01*
X167803654Y-127580000D02*
X174273654Y-121110000D01*
X159500000Y-127580000D02*
X167803654Y-127580000D01*
%TO.N,Net-(J1-Pin_4)*%
X158590000Y-91555000D02*
X170620000Y-103585000D01*
X158590000Y-84380101D02*
X158590000Y-91555000D01*
X157769899Y-83560000D02*
X158590000Y-84380101D01*
X156610101Y-83560000D02*
X157769899Y-83560000D01*
X155790000Y-84380101D02*
X156610101Y-83560000D01*
X137090000Y-84380101D02*
X155790000Y-84380101D01*
X136269899Y-83560000D02*
X137090000Y-84380101D01*
X135110101Y-83560000D02*
X136269899Y-83560000D01*
X170620000Y-103585000D02*
X170620000Y-104500000D01*
X133220000Y-85450101D02*
X135110101Y-83560000D01*
X133220000Y-100362032D02*
X133220000Y-85450101D01*
X157897968Y-125040000D02*
X133220000Y-100362032D01*
X159500000Y-125040000D02*
X157897968Y-125040000D01*
%TO.N,Net-(J1-Pin_3)*%
X168080000Y-104500000D02*
X168080000Y-110814314D01*
X168080000Y-110814314D02*
X165940000Y-112954314D01*
%TO.N,Net-(J1-Pin_2)*%
X156400000Y-122976346D02*
X157073654Y-123650000D01*
X171060000Y-123650000D02*
X174750000Y-119960000D01*
X156400000Y-119483654D02*
X156400000Y-122976346D01*
X157073654Y-118810000D02*
X156400000Y-119483654D01*
X159926346Y-118810000D02*
X157073654Y-118810000D01*
X165540000Y-113196346D02*
X159926346Y-118810000D01*
X157073654Y-123650000D02*
X171060000Y-123650000D01*
X165540000Y-104500000D02*
X165540000Y-113196346D01*
%TO.N,GND*%
X186540000Y-82420000D02*
X163540000Y-82420000D01*
X142040000Y-82420000D02*
X209040000Y-82420000D01*
%TO.N,Net-(U1-PA10_A2_D2)*%
X180190000Y-99270000D02*
X159500000Y-119960000D01*
X180190000Y-84960000D02*
X180190000Y-99270000D01*
%TO.N,Net-(U1-PA4_A1_D1)*%
X160550000Y-116370000D02*
X159500000Y-117420000D01*
X160550000Y-113730000D02*
X160550000Y-116370000D01*
X157190000Y-110370000D02*
X160550000Y-113730000D01*
X157190000Y-84960000D02*
X157190000Y-110370000D01*
%TD*%
M02*
