M48
; DRILL file KiCad 10.0.6 date 2026-09-29T18:05:58
; FORMAT={-:-/ absolute / metric / decimal}
; #@! TF.CreationDate,2026-09-29T18:05:58+03:00
; #@! TF.GenerationSoftware,Kicad,Pcbnew,10.0.6
; #@! TF.FileFunction,Plated,1,2,PTH
FMAT,2
METRIC
; #@! TA.AperFunction,Plated,PTH,ComponentDrill
T1C1.000
; #@! TA.AperFunction,Plated,PTH,ComponentDrill
T2C1.020
; #@! TA.AperFunction,Plated,PTH,ComponentDrill
T3C1.500
%
G90
G05
T1
X159.5Y-114.88
X159.5Y-117.42
X159.5Y-119.96
X159.5Y-122.5
X159.5Y-125.04
X159.5Y-127.58
X159.5Y-130.12
X174.75Y-114.88
X174.75Y-117.42
X174.75Y-119.96
X174.75Y-122.5
X174.75Y-125.04
X174.75Y-127.58
X174.75Y-130.12
T2
X163.0Y-104.5
X165.54Y-104.5
X168.08Y-104.5
X170.62Y-104.5
T3
X135.69Y-84.96
X142.04Y-82.42
X157.19Y-84.96
X163.54Y-82.42
X180.19Y-84.96
X186.54Y-82.42
X202.69Y-84.96
X209.04Y-82.42
M30
